<svg xmlns="http://www.w3.org/2000/svg" viewBox="0 0 1024 1024"><desc>Created by Silvino Rodrigues</desc><defs><linearGradient id="gr" x1="0%" x2="100%" y1="0%" y2="50%"><stop offset="0%" style="stop-color:#fb0000;stop-opacity:.8"/><stop offset="100%" style="stop-color:#8c0000;stop-opacity:.8"/></linearGradient><linearGradient id="gg" x1="0%" x2="100%" y1="0%" y2="50%"><stop offset="0%" style="stop-color:#00fb00;stop-opacity:.8"/><stop offset="100%" style="stop-color:#008c00;stop-opacity:.8"/></linearGradient><linearGradient id="gb" x1="0%" x2="100%" y1="0%" y2="50%"><stop offset="0%" style="stop-color:#0000fb;stop-opacity:.8"/><stop offset="100%" style="stop-color:#00008c;stop-opacity:.8"/></linearGradient><filter id="sh" width="114.7%" height="129.6%" x="-7.3%" y="-14.8%" filterUnits="objectBoundingBox"><feMorphology in="SourceAlpha" operator="dilate" radius="20" result="sso"/><feOffset in="sso" result="soo"/><feGaussianBlur in="soo" result="sbo" stdDeviation="10"/><feColorMatrix in="sbo" values="0 0 0 0 0.933333333 0 0 0 0 0.933333333 0 0 0 0 0.933333333 0 0 0 1 0"/></filter></defs><style>.ln{stroke:none;stroke-linecap:round;stroke-linejoin:round;fill:#111}@media (prefers-color-scheme:dark){.ln{fill:#222}}</style><g id="r"><path d="m511 452.043 391.373-192.281L511 81.547 119.627 259.762Z" style="stroke:none;stroke-linecap:round;stroke-linejoin:round;fill:url(#gr)"/><path d="M511 64.047a17.5 17.5 0 0 0-7.252 1.574L112.375 243.836a17.502 17.502 0 0 0-.465 31.633L503.283 467.75a17.5 17.5 0 0 0 15.434 0L910.09 275.469a17.502 17.502 0 0 0-.465-31.633L518.252 65.62A17.5 17.5 0 0 0 511 64.047m0 36.728 350.465 159.586L511 432.545 160.535 260.36Z" class="ln"/></g><g id="g"><path d="M478.654 508.76 80.382 308.594l41.933 406.156L481.79 939.11Z" style="stroke:none;stroke-linecap:round;stroke-linejoin:round;fill:url(#gg)"/><path d="M79.174 291.137a17.5 17.5 0 0 0-16.2 19.254l41.934 406.156a17.5 17.5 0 0 0 8.14 13.049l359.477 224.36a17.502 17.502 0 0 0 26.764-14.976l-3.135-430.347a17.5 17.5 0 0 0-9.64-15.51L88.24 292.957a17.5 17.5 0 0 0-9.066-1.82m21.896 47.441L461.232 519.59l2.827 387.824-325.215-202.976Z" class="ln"/></g><g id="b"><path d="m543.346 508.76 398.272-200.166-41.933 406.156L540.21 939.11Z" style="stroke:none;stroke-linecap:round;stroke-linejoin:round;fill:url(#gb)"/><path d="M944.154 291.28a17.5 17.5 0 0 0-10.394 1.677L535.486 493.123a17.5 17.5 0 0 0-9.64 15.51L522.71 938.98a17.502 17.502 0 0 0 26.764 14.975l359.476-224.36a17.5 17.5 0 0 0 8.14-13.048l41.934-406.156a17.5 17.5 0 0 0-14.87-19.112m-23.224 47.298-37.774 365.86-325.215 202.976 2.827-387.824z" class="ln"/></g></svg>