<svg xmlns="http://www.w3.org/2000/svg" viewBox="0 0 500 212"><desc>Created by Silvino Rodrigues</desc><style>path{fill:#111}@media (prefers-color-scheme:dark){path{fill:#eee}}</style><g fill-rule="evenodd"><path d="M481.696 20.902h1.86c2.115 0 3.44-1.125 3.44-2.838 0-1.892-1.325-2.761-3.363-2.761-.994 0-1.631.077-1.936.153v5.446zm-3.108-7.619c1.172-.205 2.93-.358 4.739-.358 2.471 0 4.153.409 5.299 1.381.943.793 1.478 1.994 1.478 3.452 0 2.224-1.503 3.733-3.108 4.321v.077c1.223.46 1.962 1.662 2.395 3.324l1.35 4.807h-3.236c-.255-.511-.662-1.918-1.146-4.065-.484-2.25-1.299-2.966-3.083-3.017h-1.58v7.083h-3.108zm5.594-4.578c-7.113 0-12.9 5.787-12.9 12.9s5.787 12.9 12.9 12.9 12.9-5.787 12.9-12.9-5.787-12.9-12.9-12.9m0 28.718a15.7 15.7 0 0 1-11.185-4.633 15.7 15.7 0 0 1-4.633-11.185 15.7 15.7 0 0 1 4.633-11.185 15.71 15.71 0 0 1 22.37 0A15.7 15.7 0 0 1 500 21.605a15.7 15.7 0 0 1-4.633 11.185 15.7 15.7 0 0 1-11.185 4.633"/><path fill-rule="nonzero" d="M402.259.013c44.179 0 79.994 35.815 79.994 79.996v51.654c0 44.179-35.815 79.994-79.994 79.994H79.994C35.815 211.656 0 175.842 0 131.663V80.009C0 35.828 35.815.013 79.994.013zm.914 8.228h-79.996c-39.13 0-70.852 31.721-70.852 70.852v53.711c0 39.132-31.721 70.854-70.852 70.854H403.17c39.13 0 70.854-31.723 70.854-70.854V79.095c0-39.132-31.721-70.854-70.852-70.854zM65.368 49.154h-24l29.483 110.391h18.97l22.172-76.337 22.169 76.339h19.656l29.027-110.393h-22.172l-16.911 72.681-21.027-72.681h-20.341l-21.029 70.852zm345.348 34.739v75.653H387.86V83.893zm-191.758-.002h-22.854v75.653h22.854zm152.445-34.737v22.398h-58.511V93.95h54.856v22.398h-54.856v43.196h-24.226V49.154zm-163.987-2.745c-7.511 0-13.599 6.089-13.599 13.599s6.089 13.599 13.599 13.599 13.599-6.089 13.599-13.599-6.089-13.599-13.599-13.599m191.986-.228c7.511 0 13.599 6.089 13.599 13.599s-6.089 13.599-13.599 13.599-13.599-6.089-13.599-13.599 6.089-13.599 13.599-13.599"/></g></svg>