<svg xmlns="http://www.w3.org/2000/svg" viewBox="0 0 188 45"><desc>Created by Silvino Rodrigues</desc><path d="M28.9 6.206c4.935 1.289 5.241 3.295 5.932 5.255l-21.71 21.714s11.706 1.225 25.222-1.044l-.003.079c2.142-3.239 3.4-7.082 3.4-11.214C41.742 9.498 32.126.177 20.264.177c-6.05 0-11.507 2.434-15.41 6.336 6.27-1.002 18.514-1.753 24.047-.307zM11.188 35.085c-2.068-.37-4.394-2.271-4.911-5.651 1.5-1.321 20.86-21.858 20.86-21.858-7.311-.452-15.199-.496-23.199.921A21.5 21.5 0 0 0 0 20.925c0 11.773 9.341 21.317 20.866 21.317 6.44 0 12.195-2.984 16.023-7.669-4.04.56-16.798 2.093-25.7.512z" style="fill:#ec0b43"/><path d="M87.744 15.602c2.34-4.365 8.339-6.795 12.933-4.395 1.375.718 2.371 1.767 3.379 2.916V10.76h6.353v13.718c0 3.05.141 6.121-.307 9.145-.594 4.013-2.462 7.785-6.181 9.752-4.225 2.234-9.975 1.774-14.058-.55-.884-.503-3.553-1.833-3.522-3.015.014-.53.613-1.002.954-1.345l2.838-2.824h.135c3.574 3.273 10.315 5.557 13.045-.135.81-1.689.878-3.413.878-5.245h-.135c-.68 1.277-2.331 2.207-3.65 2.715-4.257 1.641-9.431.264-12.027-3.522-2.631-3.837-2.828-9.762-.636-13.853zm32.398-12.373v9.818c1.849-1.294 3.301-2.515 5.677-2.678 1.831-.125 3.614.084 5.272.897 5.888 2.886 7.474 10.362 4.942 16.037-2.076 4.653-7.73 7.745-12.647 5.589-1.292-.566-2.261-1.518-3.244-2.496v2.824h-6.353V3.229zm21.921 10.765c6.904-7.296 20.517-3.068 20.524 7.392-5.247 1.208-10.343 4.126-15.68 4.842 2.554 3.598 7.37 2.027 10.003-.538h.135c.835.831 1.599 1.723 2.433 2.555.315.314.9.735.957 1.21.128 1.067-2.852 2.474-3.66 2.854-4.125 1.943-9.42 1.702-13.112-1.092-1.593-1.205-2.951-2.869-3.703-4.721-.66-1.626-.881-3.374-.77-5.111.176-2.734.937-5.345 2.874-7.392zm23.669 2.415c3.142-6.236 12.281-7.967 17.807-3.91 2.797 2.053 4.314 5.48 4.461 8.887-5.262 1.211-10.342 4.057-15.68 4.842 1.781 2.513 5.024 2.563 7.57 1.239.936-.487 1.632-1.343 2.568-1.777l3.515 3.766v.134c-6.46 6.374-18.772 4.902-21.172-4.707-.349-1.397-.41-2.88-.224-4.304.189-1.45.492-2.851 1.156-4.169zM83.78 10.76v22.46h-6.353V10.76zm-9.868 0c0 1.438.417 3.625-.082 4.976-.54 1.464-2.507 3.017-3.558 4.169l-7.174 8.069h11.49v5.245H54.853c0-1.479-.427-3.721.081-5.111.506-1.383 2.3-2.817 3.288-3.9 2.397-2.629 5.127-5.301 7.174-8.204h-7.164l-2.429-.216-.139-1.398v-3.63zM99.46 28.204c7.126-1.047 5.552-13.649-2.028-12.561-7.176 1.029-5.461 13.662 2.028 12.561m26.765 0c7.133-1.023 6.094-13.662-1.352-12.697-7.297.945-6.125 13.769 1.352 12.697m55.557-9.777c-1.814-3.479-6.805-3.516-9.457-1.053-1.292 1.2-1.761 2.841-1.763 4.549zm-25.413 0c-1.351-3.175-5.946-3.433-8.516-1.734-1.807 1.195-2.66 3.124-2.703 5.231zM79.86 1.543c4.66-.875 6.307 6.471 1.622 7.29-4.873.852-6.487-6.377-1.622-7.29" style="fill:#030303"/></svg>